<svg width="92" height="32" viewBox="0 0 131 38" fill="none" xmlns="http://www.w3.org/2000/svg">
<path d="M27.0223 31.7167C28.0987 31.6982 29.203 31.8738 30.2052 32.1602C31.1239 32.4281 31.8292 32.8623 31.8292 33.2873C31.8292 33.934 30.9476 34.1557 29.5092 34.359C26.8831 34.7377 27.5605 34.5068 24.693 35.5877L24.7487 35.5323C24.4796 35.6893 24.1548 35.8002 23.83 35.8002C22.6979 35.8002 22.1597 35.366 22.1597 34.5068C22.1597 32.9547 24.6374 31.9939 25.8716 31.7999C26.252 31.7352 26.6418 31.7075 27.0315 31.6982L27.0223 31.7167Z" fill="#3CAD67"/>
<path d="M33.7502 19.0046C32.7851 18.4872 31.8293 18.8845 31.2168 19.7159C31.0591 19.9192 30.9477 20.1963 30.8178 20.3811C30.6879 20.5659 30.6137 20.7599 30.4745 20.9354C29.2681 22.4598 27.6813 24.6031 25.6861 24.9173C21.8165 25.5178 21.5659 20.1132 21.204 17.4802C21.1112 16.7965 21.1019 16.4824 21.037 15.9743C20.907 15.0227 20.8142 14.2005 20.7122 13.2951C20.5266 11.7707 20.3595 10.3203 20.1368 8.80516C20.0811 8.42637 19.9605 8.01988 19.6172 7.77967C19.2738 7.53023 18.8098 7.58566 18.4386 7.66881C17.2879 7.90901 16.3321 8.86983 16.3692 9.93226C16.4064 10.9947 16.6105 11.6506 16.7126 12.5745C16.9075 14.3206 17.2323 15.7711 17.2323 17.5818C17.2323 19.3926 16.8796 21.0925 15.896 22.7647C14.903 24.4369 13.4647 25.915 11.8407 27.0883C10.8199 27.8274 9.6971 28.4372 8.50001 28.8529C7.80403 29.0931 7.08021 29.167 6.33783 29.1578C5.59545 29.1578 4.83451 28.779 4.10141 29.0469C2.78368 29.5273 2.36609 31.0517 3.32191 32.1326C4.00861 32.9086 5.12218 33.0103 6.12439 33.038C6.78325 33.0565 7.55347 32.9733 8.19378 32.8532C9.71566 32.5761 11.3118 32.031 12.5831 31.2642C15.3763 29.5643 17.3436 27.4579 19.181 24.8434C19.6821 25.8596 20.4338 26.9775 21.2875 27.6796C22.3918 28.585 23.5239 29.1393 24.8881 29.0192C27.1709 28.8067 28.9711 27.5687 30.6601 26.2291C32.349 24.8895 33.5182 23.4206 34.5576 21.5637C35.0865 20.6213 34.7246 19.5034 33.7595 18.9861L33.7502 19.0046Z" fill="#3CAD67"/>
<path d="M5.14979 12.7965C5.22403 13.0921 5.30754 13.4616 5.45602 13.8219L5.91073 14.986C7.01502 17.7945 8.33275 20.4368 9.71543 23.116C9.96598 23.5964 10.2351 24.1045 10.6898 24.4094C11.3487 24.8528 12.3694 24.5479 12.6757 23.8089C13.1582 22.654 12.1653 21.3144 11.7755 20.2705C10.9775 18.1456 10.4393 15.9191 9.79895 13.7388L9.15864 11.54C8.77817 10.2558 7.62748 9.3597 6.58815 9.56295C5.50242 9.7662 4.86212 10.9857 5.04771 12.39L5.07555 12.5193C5.09411 12.6024 5.12195 12.6948 5.14051 12.7872L5.14979 12.7965Z" fill="#3CAD67"/>
<path d="M16.0909 6.32004C15.5248 6.32004 14.9959 6.06136 14.6247 5.59019C14.3927 5.29455 14.2535 4.9712 14.1329 4.69405L14.0772 4.55547C13.9102 4.17669 14.0772 3.73323 14.4669 3.56694C14.8474 3.40064 15.2928 3.56694 15.4599 3.95496L15.5248 4.10278C15.6176 4.3245 15.7104 4.52775 15.8218 4.67557C15.961 4.86034 16.1373 4.83262 16.2208 4.79567C16.3043 4.76795 16.4435 4.68481 16.4435 4.47232C16.4435 4.43537 16.4343 4.40765 16.4343 4.3707C16.4157 4.28755 16.3786 4.16745 16.3507 4.09354C16.2951 3.90877 16.2394 3.73323 16.2115 3.58541C16.1559 3.21587 16.3786 2.85557 16.7312 2.75394C17.0931 2.64308 17.4736 2.80937 17.6406 3.1512C17.8077 3.49303 17.8726 3.7979 17.919 4.11201C17.9283 4.18592 17.9469 4.25059 17.9469 4.3245C17.9747 4.36146 18.1046 4.45384 18.2716 4.46308C18.3923 4.47232 18.4944 4.42613 18.5408 4.37993C18.6428 4.25059 18.8099 3.80714 18.2624 2.43059C18.1046 2.04257 18.2995 1.60836 18.68 1.4513C19.0604 1.30348 19.5058 1.48825 19.6636 1.86704C20.0626 2.8648 20.5081 4.29679 19.7378 5.28532C19.3759 5.75648 18.7635 6.01516 18.1324 5.95049C17.9005 5.93202 17.6592 5.85811 17.4365 5.75648C17.2509 5.95049 17.0096 6.09831 16.7405 6.19994C16.527 6.27385 16.3043 6.32004 16.0909 6.32004Z" fill="#3CAD67"/>
<path d="M48.7578 15.4326C48.1852 15.4326 47.6859 15.7834 47.4951 16.3097L44.9402 23.1069L42.4148 16.3243C42.2092 15.7834 41.71 15.4326 41.1521 15.4326H40.9759C40.0068 15.4326 39.3607 16.412 39.7278 17.289L43.3839 26.1328L41.8128 29.7141C41.7394 29.8895 41.71 30.0649 41.71 30.255C41.71 30.9566 42.2826 31.5998 43.0608 31.5998C43.6041 31.5998 44.0886 31.2636 44.3089 30.7666L49.9911 17.289C50.0646 17.1136 50.0939 16.9382 50.0939 16.7482C50.0939 16.0465 49.5213 15.418 48.7578 15.418V15.4326Z" fill="#131313"/>
<path d="M61.6198 15.4322C60.8563 15.4322 60.2249 16.0608 60.2249 16.8209V16.9963C59.8579 16.4993 59.3586 16.09 58.742 15.7538C58.1253 15.4176 57.4058 15.2568 56.5836 15.2568C55.6292 15.2568 54.7776 15.4907 54.0288 15.9439C53.2653 16.397 52.6633 17.0694 52.2081 17.9173C51.7529 18.7651 51.5474 19.7591 51.5474 20.87C51.5474 21.981 51.7676 22.9896 52.2081 23.8374C52.6486 24.6853 53.2506 25.3723 54.0288 25.8401C54.7776 26.3225 55.6292 26.5563 56.5542 26.5563C57.3911 26.5563 58.1106 26.3809 58.742 26.0447C59.3733 25.7085 59.8725 25.2846 60.2249 24.7584V24.9776C60.2249 25.7378 60.8563 26.3663 61.6198 26.3663C62.3833 26.3663 63.0147 25.7378 63.0147 24.9776V16.7917C63.0147 16.0316 62.3833 15.403 61.6198 15.403V15.4322ZM59.8285 22.6388C59.5642 23.1358 59.2118 23.5012 58.7566 23.7644C58.3162 24.0129 57.8316 24.1444 57.303 24.1444C56.7745 24.1444 56.334 24.0129 55.8935 23.7497C55.453 23.4866 55.0859 23.1066 54.8216 22.6096C54.5427 22.0979 54.4252 21.5425 54.4252 20.87C54.4252 20.1976 54.5427 19.6275 54.8216 19.1598C55.1006 18.6628 55.453 18.3119 55.8788 18.0488C56.3193 17.8003 56.8038 17.6834 57.3177 17.6834C57.8316 17.6834 58.3162 17.8003 58.7713 18.0634C59.2265 18.3266 59.5936 18.692 59.8432 19.1744C60.1075 19.6714 60.2396 20.2269 60.2396 20.9139C60.2396 21.6009 60.1075 22.171 59.8432 22.6534L59.8285 22.6388Z" fill="#131313"/>
<path d="M67.1551 11.749C66.3916 11.749 65.7603 12.363 65.7603 13.1231V25.1973C65.7603 25.9575 66.3916 26.5714 67.1551 26.5714C67.9186 26.5714 68.5353 25.9575 68.5353 25.1973V13.1231C68.5353 12.363 67.9186 11.749 67.1551 11.749Z" fill="#131313"/>
<path d="M72.6759 11.749C71.9124 11.749 71.281 12.363 71.281 13.1231V25.1973C71.281 25.9575 71.9124 26.5714 72.6759 26.5714C73.4394 26.5714 74.0561 25.9575 74.0561 25.1973V13.1231C74.0561 12.363 73.4394 11.749 72.6759 11.749Z" fill="#131313"/>
<path d="M86.1843 15.4322C85.4061 15.4322 84.7747 16.0608 84.7747 16.8209V16.9963C84.4077 16.4993 83.9085 16.09 83.2918 15.7538C82.6751 15.4176 81.9556 15.2568 81.1334 15.2568C80.1937 15.2568 79.3274 15.4907 78.5786 15.9439C77.8151 16.397 77.2131 17.0694 76.7579 17.9173C76.3321 18.7797 76.0972 19.7591 76.0972 20.87C76.0972 21.981 76.3321 22.9896 76.7579 23.8374C77.1984 24.6999 77.8004 25.3723 78.5786 25.8401C79.3274 26.3225 80.179 26.5563 81.1187 26.5563C81.9409 26.5563 82.6604 26.3809 83.2918 26.0447C83.9231 25.7085 84.4224 25.2846 84.7747 24.7584V24.9776C84.7747 25.7378 85.4061 26.3663 86.1843 26.3663C86.9625 26.3663 87.5792 25.7378 87.5792 24.9776V16.7917C87.5792 16.0316 86.9478 15.403 86.1843 15.403V15.4322ZM84.3783 22.6388C84.0993 23.1358 83.7469 23.5012 83.3065 23.7644C82.866 24.0129 82.3668 24.1444 81.8529 24.1444C81.339 24.1444 80.8691 24.0129 80.4139 23.7497C79.9588 23.4866 79.6064 23.1066 79.3421 22.6096C79.0778 22.0979 78.9456 21.5425 78.9456 20.87C78.9456 20.1976 79.0778 19.6275 79.3421 19.1598C79.6211 18.6628 79.9734 18.3119 80.4139 18.0488C80.8397 17.8003 81.3243 17.6834 81.8529 17.6834C82.3814 17.6834 82.8513 17.8003 83.3065 18.0634C83.7469 18.3266 84.114 18.692 84.3783 19.1744C84.6426 19.6714 84.7601 20.2269 84.7601 20.9139C84.7601 21.6009 84.6426 22.171 84.3783 22.6534V22.6388Z" fill="#131313"/>
<path d="M100.661 16.1197C99.8832 15.6665 99.0022 15.4326 98.0184 15.4326C97.0347 15.4326 96.095 15.6811 95.3462 16.1489C94.5973 16.6459 94.0541 17.2306 93.7017 17.9761V16.2804C93.7017 15.915 93.408 15.608 93.0263 15.608C92.6445 15.608 92.3362 15.915 92.3362 16.2804V30.8397C92.3362 31.2052 92.6445 31.5121 93.0263 31.5121C93.408 31.5121 93.7017 31.2052 93.7017 30.8397V24.0278C94.0541 24.7441 94.612 25.3581 95.3608 25.8404C96.1097 26.3375 97.0053 26.5567 98.0184 26.5567C99.0316 26.5567 99.8832 26.3228 100.661 25.8697C101.469 25.4165 102.071 24.7441 102.526 23.9109C102.952 23.0631 103.187 22.0837 103.187 20.9874C103.187 19.891 102.952 18.897 102.526 18.0784C102.086 17.2306 101.469 16.5874 100.661 16.1343V16.1197ZM101.249 23.3116C100.896 23.9694 100.412 24.4956 99.7951 24.8318C99.1931 25.1826 98.503 25.3727 97.7248 25.3727C96.9466 25.3727 96.2859 25.1826 95.6839 24.8318C95.0672 24.4664 94.5973 23.9548 94.2156 23.297C93.8632 22.6392 93.6723 21.8644 93.6723 21.002C93.6723 20.1395 93.8632 19.3794 94.2156 18.707C94.5827 18.0492 95.0672 17.5376 95.6839 17.1867C96.3006 16.8359 96.9906 16.6459 97.7248 16.6459C98.4589 16.6459 99.1931 16.8213 99.7951 17.1721C100.412 17.5083 100.882 18.02 101.249 18.6631C101.601 19.3209 101.777 20.1103 101.777 20.9874C101.777 21.8644 101.601 22.6392 101.249 23.3116Z" fill="#131313"/>
<path d="M129.91 21.9959C129.572 21.6159 129.176 21.3235 128.706 21.1189C128.251 20.9142 127.634 20.7242 126.841 20.5049C126.195 20.3149 125.666 20.1541 125.285 19.9933C124.903 19.8471 124.58 19.6425 124.316 19.3647C124.066 19.087 123.934 18.7508 123.934 18.3269C123.934 17.8299 124.154 17.4352 124.595 17.099C125.02 16.7774 125.593 16.602 126.298 16.602C127.105 16.602 127.707 16.8066 128.177 17.1867C128.647 17.5667 128.882 18.093 128.926 18.7215C128.941 19.087 129.234 19.3793 129.616 19.3793C129.998 19.3793 130.292 19.087 130.306 18.7215C130.306 18.7215 130.306 18.7069 130.306 18.6923C130.306 18.6923 130.306 18.6923 130.306 18.6777C130.248 17.6691 129.866 16.8797 129.161 16.295C128.456 15.6957 127.502 15.4033 126.342 15.4033C125.593 15.4033 124.932 15.5349 124.345 15.798C123.758 16.0611 123.317 16.4266 123.009 16.8651C122.686 17.3036 122.524 17.8006 122.524 18.3415C122.524 19.0285 122.701 19.5986 123.053 20.0079C123.405 20.4172 123.816 20.7242 124.33 20.9434C124.844 21.1627 125.49 21.3674 126.298 21.572C126.929 21.7474 127.428 21.879 127.781 22.0105C128.148 22.1567 128.456 22.3467 128.691 22.5806C128.941 22.8291 129.044 23.1361 129.044 23.5015C129.044 24.0278 128.823 24.4663 128.397 24.8171C127.972 25.1826 127.384 25.358 126.621 25.358C125.755 25.358 125.064 25.168 124.551 24.7879C124.037 24.4225 123.743 23.9255 123.684 23.3115C123.684 22.9168 123.361 22.5952 122.965 22.5952C122.568 22.5952 122.245 22.9168 122.245 23.3115C122.333 24.3055 122.774 25.0803 123.567 25.6504C124.345 26.2351 125.373 26.5128 126.621 26.5128C127.355 26.5128 128.016 26.3959 128.588 26.1327C129.161 25.855 129.601 25.5042 129.91 25.051C130.233 24.5979 130.409 24.0863 130.409 23.5015C130.394 22.8584 130.203 22.3467 129.88 21.9667L129.91 21.9959Z" fill="#131313"/>
<path d="M106.462 11.749H106.418C106.053 11.749 105.757 12.0435 105.757 12.4068V25.9282C105.757 26.2915 106.053 26.586 106.418 26.586H106.462C106.827 26.586 107.122 26.2915 107.122 25.9282V12.4068C107.122 12.0435 106.827 11.749 106.462 11.749Z" fill="#131313"/>
<path d="M119.03 15.5938H119C118.633 15.5938 118.325 15.8861 118.325 16.2662V21.4701C118.325 22.7564 118.017 23.7212 117.385 24.379C116.769 25.0368 115.917 25.373 114.874 25.373C113.832 25.373 113.054 25.066 112.452 24.4375C111.864 23.8235 111.571 22.9172 111.571 21.7332V16.2662C111.571 15.9007 111.262 15.5938 110.881 15.5938C110.499 15.5938 110.205 15.9007 110.205 16.2662V21.9086C110.205 23.4289 110.616 24.569 111.439 25.3876C112.261 26.1916 113.318 26.5863 114.625 26.5863C115.447 26.5863 116.181 26.3963 116.842 26.0454C117.503 25.6946 118.002 25.1684 118.325 24.4959V25.7092C118.325 26.0893 118.633 26.3963 119.015 26.3963C119.397 26.3963 119.705 26.0893 119.705 25.7092V16.2662C119.705 15.8861 119.411 15.5938 119.03 15.5938Z" fill="#131313"/>
</svg>
